<?xml version="1.0" encoding="UTF-8" standalone="no"?>
<!-- Generator: Adobe Illustrator 22.0.1, SVG Export Plug-In . SVG Version: 6.00 Build 0)  -->

<svg
   version="1.1"
   id="Layer_1"
   x="0px"
   y="0px"
   viewBox="0 0 100 100"
   style="enable-background:new 0 0 100 100;"
   xml:space="preserve"
   sodipodi:docname="Praveen-Minimal-Outline-Chat.svg"
   inkscape:version="1.1 (c68e22c387, 2021-05-23)"
   xmlns:inkscape="http://www.inkscape.org/namespaces/inkscape"
   xmlns:sodipodi="http://sodipodi.sourceforge.net/DTD/sodipodi-0.dtd"
   xmlns="http://www.w3.org/2000/svg"
   xmlns:svg="http://www.w3.org/2000/svg"><defs
   id="defs9" /><sodipodi:namedview
   id="namedview7"
   pagecolor="#505050"
   bordercolor="#eeeeee"
   borderopacity="1"
   inkscape:pageshadow="0"
   inkscape:pageopacity="0"
   inkscape:pagecheckerboard="0"
   showgrid="false"
   inkscape:zoom="4.16"
   inkscape:cx="24.278846"
   inkscape:cy="30.649038"
   inkscape:window-width="1920"
   inkscape:window-height="1017"
   inkscape:window-x="-8"
   inkscape:window-y="-8"
   inkscape:window-maximized="1"
   inkscape:current-layer="Layer_1" />
<g
   id="g4"
   transform="matrix(1.279366,0,0,1.0802194,-13.968295,3.2380717)"
   style="fill:#e76f51;fill-opacity:1;stroke:none">
	<path
   d="m 33.1,75.9 c 16.211143,0 18.323762,0.06969 27.41682,0.09271 1.114231,0.0028 2.423418,2.816368 3.395432,2.781987 C 64.750265,78.745056 65.943864,76 66.9,76 78,76 87,67 87,55.9 V 30.1 C 87,19 78,10 66.9,10 H 33.1 C 22,10 13,19 13,30.1 v 25.8 c 0,11 9,20 20.1,20 z"
   id="path2"
   sodipodi:nodetypes="csscssssssc"
   style="fill:#e76f51;fill-opacity:1;stroke:none" />
</g>
<path
   d="M 38.045564,46.856271 C 48.299786,38.478626 58.330362,29.810563 68.807849,21.678703 63.312064,30.123509 57.660182,38.456122 52.164397,46.90055 47.450614,46.92306 42.737209,46.92306 38.045564,46.85591 Z m 8.668079,4.668752 c 4.735918,0 9.449702,0 14.163483,0.06717 -10.321014,8.332611 -20.306935,17.067482 -30.806939,25.17719 5.495784,-8.444799 11.147672,-16.799558 16.643456,-25.244358 z"
   fill="#010101"
   id="path6"
   style="fill:#f4a261;fill-opacity:1;stroke-width:0.37524" /></svg>
